<?xml version="1.0" encoding="utf-8"?>
<!-- Generator: Adobe Illustrator 24.0.0, SVG Export Plug-In . SVG Version: 6.00 Build 0)  -->
<svg version="1.1" id="Layer_1" xmlns="http://www.w3.org/2000/svg" xmlns:xlink="http://www.w3.org/1999/xlink" x="0px" y="0px"
	 viewBox="0 0 150 250" style="enable-background:new 0 0 150 250;" xml:space="preserve">
<style type="text/css">
	.st0{fill:#898888;}
	.st1{fill:#007236;}
	.st2{fill:#FFD21A;}
	.st3{fill:#ACAAAB;}
	.st4{fill:#827F81;}
	.st5{fill:#EDEDED;}
	.st6{fill:#635F61;}
	.st7{fill:#706D6D;}
	.st8{fill:#FFFFFF;}
</style>
<rect x="71.32" y="14.87" class="st0" width="7.37" height="231.14"/>
<path class="st1" d="M126.12,36.93H78.97c-0.51,0-0.92-0.41-0.92-0.92V23.78c0-0.51,0.41-0.92,0.92-0.92h47.15
	c0.51,0,0.92,0.41,0.92,0.92v12.23C127.04,36.52,126.63,36.93,126.12,36.93z"/>
<ellipse class="st2" cx="133.42" cy="7.67" rx="13.45" ry="3.27"/>
<ellipse class="st2" cx="16.21" cy="8.74" rx="13.45" ry="3.27"/>
<path class="st3" d="M67.27,216.87h15.46c0,0-0.94-27.15-2.55-29.57H69.69C69.69,187.3,67.54,196.17,67.27,216.87z"/>
<path class="st4" d="M82.33,4.16V3.99c-7.86,0.17-8.7,9.03-8.7,9.03s4.84,5.34,5.01,0.32c0.14-4.18,2.9-5.64,3.95-5.68h64.66v0
	c0-1.94-1.57-3.51-3.51-3.51H82.33z"/>
<path class="st5" d="M80.08,139.51H69.92c-0.31,0-0.56-0.25-0.56-0.56v-1.46c0-0.31,0.25-0.56,0.56-0.56h10.17
	c0.31,0,0.56,0.25,0.56,0.56v1.46C80.64,139.26,80.39,139.51,80.08,139.51z"/>
<path class="st5" d="M80.08,76.94H69.92c-0.31,0-0.56-0.25-0.56-0.56v-1.46c0-0.31,0.25-0.56,0.56-0.56h10.17
	c0.31,0,0.56,0.25,0.56,0.56v1.46C80.64,76.69,80.39,76.94,80.08,76.94z"/>
<path class="st6" d="M56.4,245.82h37.17c0,0,0.46-2.3-3.31-3.31H59.9C59.9,242.51,57.05,242.78,56.4,245.82z"/>
<path class="st7" d="M64.42,242.51h21.16c0,0-1.29-37.17-3.5-40.49H67.73C67.73,202.02,64.79,214.17,64.42,242.51z"/>
<path class="st4" d="M67.73,4.26V4.09c7.86,0.17,8.7,9.03,8.7,9.03s-4.84,5.34-5.01,0.32c-0.14-4.18-2.9-5.64-3.95-5.68H2.81v0
	c0-1.94,1.57-3.51,3.51-3.51H67.73z"/>
<path class="st5" d="M79.85,18.06h-9.71c-0.44,0-0.79-0.35-0.79-0.79v-3.57c0-0.44,0.35-0.79,0.79-0.79h9.71
	c0.44,0,0.79,0.35,0.79,0.79v3.57C80.64,17.7,80.29,18.06,79.85,18.06z"/>
<path class="st8" d="M124.87,35.7H80.43c-0.52,0-0.94-0.42-0.94-0.94v-9.99c0-0.52,0.42-0.94,0.94-0.94h44.44
	c0.52,0,0.94,0.42,0.94,0.94v9.99C125.8,35.28,125.38,35.7,124.87,35.7z M80.43,24.08c-0.38,0-0.69,0.31-0.69,0.69v9.99
	c0,0.38,0.31,0.69,0.69,0.69h44.44c0.38,0,0.69-0.31,0.69-0.69v-9.99c0-0.38-0.31-0.69-0.69-0.69H80.43z"/>
<g>
	<path class="st8" d="M85.28,32.54h-2.97v-5.72h0.67v5.12h2.3V32.54z"/>
	<path class="st8" d="M88.19,32.64c-0.81,0-1.46-0.27-1.95-0.8c-0.49-0.53-0.73-1.23-0.73-2.09c0-0.92,0.25-1.65,0.75-2.2
		c0.5-0.55,1.17-0.82,2.03-0.82c0.79,0,1.43,0.27,1.91,0.8c0.48,0.53,0.72,1.23,0.72,2.09c0,0.93-0.25,1.67-0.74,2.21
		C89.68,32.36,89.02,32.64,88.19,32.64z M88.23,27.33c-0.6,0-1.09,0.22-1.46,0.65c-0.38,0.43-0.56,1-0.56,1.71
		c0,0.7,0.18,1.27,0.55,1.7c0.37,0.43,0.84,0.64,1.43,0.64c0.63,0,1.12-0.2,1.48-0.61c0.36-0.41,0.54-0.98,0.54-1.72
		c0-0.76-0.18-1.34-0.53-1.75C89.33,27.53,88.85,27.33,88.23,27.33z"/>
	<path class="st8" d="M92.71,32.54h-0.67v-5.72h0.67V32.54z"/>
	<path class="st8" d="M93.95,32.31v-0.79c0.09,0.08,0.2,0.15,0.33,0.22c0.13,0.06,0.26,0.12,0.4,0.16s0.28,0.08,0.42,0.1
		c0.14,0.02,0.27,0.04,0.39,0.04c0.41,0,0.72-0.08,0.92-0.23c0.2-0.15,0.3-0.37,0.3-0.66c0-0.15-0.03-0.29-0.1-0.4
		c-0.07-0.11-0.16-0.22-0.28-0.31c-0.12-0.09-0.26-0.19-0.42-0.27c-0.16-0.09-0.34-0.18-0.53-0.27c-0.2-0.1-0.39-0.2-0.56-0.31
		c-0.17-0.1-0.32-0.22-0.45-0.34c-0.13-0.13-0.23-0.27-0.3-0.42s-0.11-0.34-0.11-0.56c0-0.26,0.06-0.49,0.17-0.68
		s0.26-0.35,0.45-0.48c0.19-0.13,0.4-0.22,0.64-0.28c0.24-0.06,0.48-0.09,0.73-0.09c0.56,0,0.97,0.07,1.23,0.2v0.75
		c-0.34-0.23-0.77-0.35-1.3-0.35c-0.15,0-0.29,0.02-0.44,0.05c-0.15,0.03-0.28,0.08-0.39,0.15c-0.11,0.07-0.21,0.16-0.28,0.27
		c-0.07,0.11-0.11,0.24-0.11,0.4c0,0.15,0.03,0.27,0.08,0.38c0.05,0.11,0.13,0.2,0.24,0.29s0.24,0.17,0.39,0.26
		c0.15,0.08,0.33,0.17,0.53,0.27c0.2,0.1,0.4,0.21,0.58,0.32c0.18,0.11,0.34,0.24,0.48,0.37c0.14,0.14,0.25,0.29,0.33,0.45
		s0.12,0.35,0.12,0.57c0,0.28-0.05,0.52-0.17,0.72c-0.11,0.2-0.26,0.35-0.45,0.48c-0.19,0.12-0.4,0.21-0.65,0.27
		c-0.25,0.05-0.5,0.08-0.77,0.08c-0.09,0-0.2-0.01-0.33-0.02s-0.27-0.04-0.41-0.06c-0.14-0.03-0.27-0.06-0.39-0.1
		S94.02,32.36,93.95,32.31z"/>
	<path class="st8" d="M102.99,32.54h-0.74l-0.61-1.6h-2.43l-0.57,1.6h-0.75l2.19-5.72h0.69L102.99,32.54z M101.42,30.33l-0.9-2.44
		c-0.03-0.08-0.06-0.21-0.09-0.38h-0.02c-0.03,0.16-0.06,0.29-0.09,0.38l-0.89,2.44H101.42z"/>
	<path class="st8" d="M104.5,32.54h-0.67v-5.72h0.67V32.54z"/>
	<path class="st8" d="M106,32.54v-5.72h1.58c2.02,0,3.03,0.93,3.03,2.79c0,0.88-0.28,1.59-0.84,2.13c-0.56,0.54-1.31,0.8-2.25,0.8
		H106z M106.67,27.42v4.51h0.85c0.75,0,1.33-0.2,1.75-0.6c0.42-0.4,0.63-0.97,0.63-1.71c0-1.47-0.78-2.2-2.34-2.2H106.67z"/>
	<path class="st8" d="M116.03,32.54h-0.74l-0.61-1.6h-2.43l-0.57,1.6h-0.75l2.19-5.72h0.69L116.03,32.54z M114.46,30.33l-0.9-2.44
		c-0.03-0.08-0.06-0.21-0.09-0.38h-0.02c-0.03,0.16-0.06,0.29-0.09,0.38l-0.89,2.44H114.46z"/>
</g>
<g>
	<path class="st8" d="M120.91,28.94h-0.41l-0.34-0.89h-1.35l-0.32,0.89h-0.41l1.22-3.18h0.39L120.91,28.94z M120.04,27.72l-0.5-1.35
		c-0.02-0.04-0.03-0.12-0.05-0.21h-0.01c-0.01,0.09-0.03,0.16-0.05,0.21l-0.49,1.35H120.04z"/>
	<path class="st8" d="M123.48,25.76l-1.18,3.18h-0.41l-1.15-3.18h0.41l0.88,2.52c0.03,0.08,0.05,0.17,0.06,0.28h0.01
		c0.01-0.09,0.04-0.18,0.07-0.29l0.9-2.52H123.48z"/>
</g>
<path class="st1" d="M106.6,52.74H79.38c-0.37,0-0.67-0.3-0.67-0.67V40.62c0-0.37,0.3-0.67,0.67-0.67h27.22
	c0.37,0,0.67,0.3,0.67,0.67v11.45C107.27,52.44,106.97,52.74,106.6,52.74z"/>
<path class="st8" d="M104.97,51.86H80.78c-0.39,0-0.7-0.32-0.7-0.7v-9.58c0-0.39,0.32-0.7,0.7-0.7h24.19c0.39,0,0.7,0.32,0.7,0.7
	v9.58C105.67,51.54,105.36,51.86,104.97,51.86z M80.78,41.12c-0.25,0-0.45,0.2-0.45,0.45v9.58c0,0.25,0.2,0.45,0.45,0.45h24.19
	c0.25,0,0.45-0.2,0.45-0.45v-9.58c0-0.25-0.2-0.45-0.45-0.45H80.78z"/>
<g>
	<path class="st8" d="M86.97,49.14h-0.7l-0.58-1.52h-2.3l-0.54,1.52h-0.71l2.08-5.43h0.66L86.97,49.14z M85.48,47.05l-0.85-2.32
		c-0.03-0.08-0.06-0.2-0.08-0.36h-0.01c-0.03,0.15-0.05,0.28-0.09,0.36l-0.84,2.32H85.48z"/>
	<path class="st8" d="M91.36,43.71l-2.01,5.43h-0.7l-1.97-5.43h0.71l1.5,4.31c0.05,0.14,0.08,0.3,0.11,0.48h0.02
		c0.02-0.15,0.06-0.31,0.13-0.49l1.53-4.3H91.36z"/>
	<path class="st8" d="M95.02,49.14h-2.88v-5.43h2.76v0.58h-2.12v1.81h1.96v0.57h-1.96v1.9h2.24V49.14z"/>
	<path class="st8" d="M101.89,48.92c-0.4,0.21-0.9,0.32-1.5,0.32c-0.77,0-1.39-0.25-1.86-0.75c-0.46-0.5-0.7-1.15-0.7-1.96
		c0-0.87,0.26-1.57,0.78-2.11c0.52-0.54,1.19-0.8,1.99-0.8c0.52,0,0.94,0.07,1.28,0.22v0.68c-0.39-0.22-0.82-0.33-1.29-0.33
		c-0.62,0-1.13,0.21-1.52,0.63c-0.39,0.42-0.58,0.97-0.58,1.67c0,0.66,0.18,1.19,0.54,1.58c0.36,0.39,0.84,0.59,1.43,0.59
		c0.55,0,1.02-0.12,1.42-0.36V48.92z"/>
</g>
</svg>
